<?xml version="1.0" standalone="no"?>
<!DOCTYPE svg PUBLIC "-//W3C//DTD SVG 20010904//EN"
 "http://www.w3.org/TR/2001/REC-SVG-20010904/DTD/svg10.dtd">
<svg version="1.0" xmlns="http://www.w3.org/2000/svg"
 width="1083.000000pt" height="1076.000000pt" viewBox="0 0 1083.000000 1076.000000"
 preserveAspectRatio="xMidYMid meet">

<g transform="translate(0.000000,1076.000000) scale(0.100000,-0.100000)"
fill="#000000" stroke="none">
<path d="M3107 10703 c1278 -2 3368 -2 4645 0 1278 1 233 2 -2322 2 -2555 0
-3600 -1 -2323 -2z"/>
<path d="M748 10693 c7 -3 16 -2 19 1 4 3 -2 6 -13 5 -11 0 -14 -3 -6 -6z"/>
<path d="M10098 10693 c7 -3 16 -2 19 1 4 3 -2 6 -13 5 -11 0 -14 -3 -6 -6z"/>
<path d="M698 10683 c6 -2 18 -2 25 0 6 3 1 5 -13 5 -14 0 -19 -2 -12 -5z"/>
<path d="M10143 10683 c9 -2 23 -2 30 0 6 3 -1 5 -18 5 -16 0 -22 -2 -12 -5z"/>
<path d="M635 10670 c-13 -6 -15 -9 -5 -9 8 0 22 4 30 9 18 12 2 12 -25 0z"/>
<path d="M10208 10668 c5 -5 16 -8 23 -6 8 3 3 7 -10 11 -17 4 -21 3 -13 -5z"/>
<path d="M575 10650 c-3 -6 1 -7 9 -4 18 7 21 14 7 14 -6 0 -13 -4 -16 -10z"/>
<path d="M10260 10656 c0 -2 7 -7 16 -10 8 -3 12 -2 9 4 -6 10 -25 14 -25 6z"/>
<path d="M10311 10636 c10 -10 103 -57 94 -48 -12 12 -83 52 -92 52 -3 0 -4
-2 -2 -4z"/>
<path d="M476 10605 c-11 -8 -16 -15 -10 -15 5 0 18 7 28 15 11 8 16 15 10 15
-5 0 -18 -7 -28 -15z"/>
<path d="M10455 10550 c10 -11 20 -20 23 -20 3 0 -3 9 -13 20 -10 11 -20 20
-23 20 -3 0 3 -9 13 -20z"/>
<path d="M389 10543 c-13 -16 -12 -17 4 -4 16 13 21 21 13 21 -2 0 -10 -8 -17
-17z"/>
<path d="M349 10513 c-13 -16 -12 -17 4 -4 16 13 21 21 13 21 -2 0 -10 -8 -17
-17z"/>
<path d="M10490 10526 c0 -2 8 -10 18 -17 15 -13 16 -12 3 4 -13 16 -21 21
-21 13z"/>
<path d="M249 10413 l-24 -28 28 24 c25 23 32 31 24 31 -2 0 -14 -12 -28 -27z"/>
<path d="M10600 10415 c13 -14 26 -25 28 -25 3 0 -5 11 -18 25 -13 14 -26 25
-28 25 -3 0 5 -11 18 -25z"/>
<path d="M170 10305 c-7 -9 -11 -17 -9 -20 3 -2 10 5 17 15 14 24 10 26 -8 5z"/>
<path d="M145 10259 c-4 -6 -5 -12 -2 -15 2 -3 7 2 10 11 7 17 1 20 -8 4z"/>
<path d="M10706 10257 c3 -10 9 -15 12 -12 3 3 0 11 -7 18 -10 9 -11 8 -5 -6z"/>
<path d="M126 10213 c-6 -14 -5 -15 5 -6 7 7 10 15 7 18 -3 3 -9 -2 -12 -12z"/>
<path d="M106 10165 c-9 -26 -7 -32 5 -12 6 10 9 21 6 23 -2 3 -7 -2 -11 -11z"/>
<path d="M10740 10175 c0 -5 5 -17 10 -25 5 -8 10 -10 10 -5 0 6 -5 17 -10 25
-5 8 -10 11 -10 5z"/>
<path d="M92 10110 c0 -14 2 -19 5 -12 2 6 2 18 0 25 -3 6 -5 1 -5 -13z"/>
<path d="M10761 10104 c0 -11 3 -14 6 -6 3 7 2 16 -1 19 -3 4 -6 -2 -5 -13z"/>
<path d="M73 10015 c0 -22 2 -30 4 -17 2 12 2 30 0 40 -3 9 -5 -1 -4 -23z"/>
<path d="M10782 10010 c0 -19 2 -27 5 -17 2 9 2 25 0 35 -3 9 -5 1 -5 -18z"/>
<path d="M65 5380 c0 -2483 1 -3499 2 -2257 2 1241 2 3273 0 4515 -1 1241 -2
225 -2 -2258z"/>
<path d="M10795 5380 c0 -2483 1 -3499 2 -2257 2 1241 2 3273 0 4515 -1 1241
-2 225 -2 -2258z"/>
<path d="M5433 9563 c3 -5 -16 -9 -41 -9 -335 -8 -487 -24 -508 -52 -8 -9 -14
-12 -14 -6 0 13 -138 8 -154 -5 -6 -5 -31 -11 -56 -15 -100 -12 -130 -19 -136
-27 -3 -5 -18 -9 -34 -9 -37 0 -141 -27 -154 -40 -5 -5 -20 -10 -33 -10 -13 0
-31 -4 -41 -9 -29 -15 -87 -31 -110 -31 -12 0 -22 -4 -22 -10 0 -5 -8 -10 -17
-10 -10 0 -31 -7 -47 -15 -15 -8 -36 -15 -46 -15 -10 0 -35 -9 -57 -19 -99
-50 -189 -91 -198 -91 -10 0 -156 -71 -165 -80 -3 -3 -30 -19 -60 -34 -68 -35
-145 -77 -186 -102 -65 -39 -305 -204 -343 -237 -15 -12 -40 -31 -55 -42 -16
-11 -33 -25 -40 -30 -6 -6 -22 -19 -36 -28 -87 -60 -411 -383 -535 -532 -22
-27 -54 -65 -71 -84 -100 -116 -286 -394 -402 -601 -24 -43 -119 -233 -142
-285 -12 -27 -33 -74 -46 -103 -13 -29 -24 -55 -24 -58 0 -3 -6 -20 -14 -37
-7 -18 -29 -77 -48 -132 -33 -92 -44 -131 -69 -225 -5 -19 -20 -76 -34 -127
-14 -51 -25 -102 -25 -114 0 -12 -4 -38 -9 -58 -15 -55 -49 -292 -56 -386 -2
-33 -9 -103 -15 -155 -17 -171 -12 -594 10 -800 23 -203 34 -286 49 -372 6
-32 15 -82 20 -111 9 -57 47 -216 60 -257 5 -14 14 -45 21 -70 19 -71 80 -253
90 -272 6 -10 10 -24 10 -33 0 -8 12 -40 26 -72 37 -83 60 -133 78 -174 8 -19
45 -96 81 -170 79 -164 82 -191 27 -319 -41 -95 -176 -245 -307 -340 -33 -24
-62 -46 -65 -49 -6 -7 -42 -28 -80 -47 -14 -7 -51 -39 -82 -71 -131 -133 -163
-312 -82 -460 79 -145 154 -210 269 -235 135 -29 282 -44 643 -64 244 -14 731
29 847 75 76 31 135 39 135 21 0 -5 5 -10 11 -10 6 0 40 -20 75 -45 34 -25 66
-45 71 -45 5 0 24 -13 43 -28 19 -16 49 -36 65 -44 17 -9 55 -30 85 -46 199
-111 530 -261 665 -301 22 -7 49 -16 60 -21 26 -10 143 -44 225 -65 36 -9 81
-20 100 -25 19 -5 62 -13 95 -19 33 -6 96 -17 140 -25 75 -13 184 -28 300 -42
113 -13 703 -16 830 -4 254 23 706 110 830 160 11 4 40 13 65 20 25 7 54 16
65 20 30 12 157 61 180 70 131 51 383 172 493 237 41 24 76 43 78 43 3 0 20
11 38 25 18 14 36 25 39 25 24 0 384 266 527 389 125 107 448 442 476 493 5 9
25 34 44 55 20 21 58 69 85 106 28 37 69 94 92 125 23 31 42 60 42 64 1 5 17
30 36 57 19 26 35 52 35 55 0 4 13 26 29 49 80 118 295 557 325 667 4 14 11
34 16 45 5 11 21 56 36 100 15 44 30 85 34 90 7 9 13 37 27 113 3 18 9 35 14
38 5 3 9 15 9 27 0 12 6 39 14 62 8 22 19 67 26 100 6 33 15 74 21 91 5 17 9
43 9 59 0 15 4 44 9 64 12 45 27 148 46 311 20 172 20 667 0 827 -36 283 -37
294 -66 441 -20 100 -60 266 -69 287 -5 11 -11 31 -14 45 -11 57 -89 295 -116
355 -5 11 -30 70 -56 130 -108 255 -238 493 -380 697 -30 43 -54 80 -54 83 0
3 -18 29 -41 58 -22 29 -53 67 -67 86 -90 115 -133 167 -217 256 -148 160
-266 272 -424 405 -30 25 -59 50 -65 55 -6 6 -27 22 -46 35 -37 26 -38 27 -85
63 -56 43 -164 117 -170 117 -4 0 -28 15 -54 34 -25 19 -64 44 -86 56 -22 13
-62 36 -90 52 -27 16 -58 32 -67 35 -10 3 -18 9 -18 14 0 5 -11 9 -24 9 -13 0
-26 4 -28 8 -5 15 -225 122 -249 122 -14 0 -73 32 -77 43 -2 4 -11 7 -20 7
-18 0 -136 41 -168 58 -10 6 -40 16 -67 23 -26 6 -50 16 -53 20 -3 5 -23 9
-44 9 -21 0 -42 5 -45 10 -3 6 -16 10 -29 10 -12 0 -31 7 -42 15 -10 8 -36 15
-56 15 -21 0 -38 5 -38 10 0 6 -22 10 -48 10 -26 0 -52 4 -57 9 -6 5 -30 11
-55 14 -25 3 -79 14 -120 23 -50 12 -111 18 -183 17 -59 -1 -105 2 -102 7 7
11 -101 20 -241 20 -76 0 -124 4 -124 10 0 6 -34 10 -81 10 -44 0 -78 -3 -76
-7z m150 -30 c-7 -2 -19 -2 -25 0 -7 3 -2 5 12 5 14 0 19 -2 13 -5z m102 -3
c17 -6 15 -9 -16 -15 -20 -3 -49 -5 -65 -2 -20 3 -14 5 21 7 49 3 49 3 15 10
-34 7 -34 7 -5 8 17 0 39 -3 50 -8z m-505 -8 c0 -12 -23 -32 -37 -32 -7 0 -17
9 -23 20 -10 18 -8 20 25 20 19 0 35 -4 35 -8z m318 -9 c-10 -2 -26 -2 -35 0
-10 3 -2 5 17 5 19 0 27 -2 18 -5z m-160 -10 c-10 -2 -26 -2 -35 0 -10 3 -2 5
17 5 19 0 27 -2 18 -5z m-118 -43 c0 -5 -2 -10 -4 -10 -3 0 -8 5 -11 10 -3 6
-1 10 4 10 6 0 11 -4 11 -10z m470 -146 c0 -8 -6 -14 -12 -14 -7 -1 -2 -10 11
-20 15 -13 38 -20 67 -20 l44 0 0 -41 0 -41 58 3 c31 2 63 7 70 12 22 16 42
-12 42 -59 0 -24 4 -44 8 -44 14 0 92 64 92 76 0 14 40 31 63 26 9 -2 17 -11
17 -20 0 -9 16 -29 34 -44 41 -32 43 -33 48 -13 2 13 6 12 21 -5 18 -21 18
-22 -2 -27 -12 -3 -21 -9 -21 -13 0 -11 57 -23 70 -15 5 3 18 1 27 -4 17 -10
17 -10 1 -11 -10 0 -18 -4 -18 -10 0 -5 -8 -11 -17 -11 -17 -1 -17 -2 0 -6 23
-6 22 -24 -4 -30 -16 -4 -17 -8 -7 -14 19 -13 28 -11 28 6 0 17 2 18 24 9 9
-3 16 -14 16 -24 0 -20 55 -35 85 -24 13 5 16 4 11 -5 -5 -8 -29 -10 -74 -7
-48 3 -55 3 -27 -3 39 -7 40 -7 10 -13 -23 -4 -16 -6 25 -8 30 -1 44 -5 30 -7
-14 -3 -29 -9 -34 -13 -10 -10 68 -5 84 5 5 3 10 -1 10 -9 0 -9 5 -16 10 -16
6 0 10 5 10 10 0 6 5 10 10 10 6 0 10 -7 10 -15 0 -8 5 -15 10 -15 6 0 10 7
10 16 0 14 2 14 15 0 9 -8 15 -19 14 -23 -3 -20 2 -25 15 -14 12 10 19 8 35
-8 12 -12 32 -21 45 -21 14 0 28 -4 31 -10 3 -5 17 -10 30 -10 13 0 27 -5 31
-11 4 -8 9 -7 15 2 6 10 9 10 9 2 0 -7 16 -20 35 -29 28 -13 38 -14 50 -4 12
10 15 10 15 -2 0 -9 17 -20 39 -26 21 -7 44 -19 51 -27 7 -8 20 -15 30 -15 10
0 21 -7 24 -16 4 -11 14 -15 30 -12 17 4 23 1 19 -9 -3 -7 1 -13 8 -13 27 0
269 -133 277 -152 2 -5 10 -8 18 -8 8 0 14 -4 14 -10 0 -5 5 -10 12 -10 6 0
26 -11 44 -25 18 -14 37 -25 43 -25 6 0 11 -4 11 -9 0 -5 9 -13 21 -16 12 -4
39 -23 60 -42 22 -20 61 -52 89 -72 136 -100 406 -348 462 -425 16 -22 54 -68
86 -102 31 -34 80 -93 107 -130 28 -38 52 -71 55 -74 17 -16 80 -109 80 -119
0 -6 5 -11 10 -11 6 0 10 -5 10 -12 0 -6 11 -26 25 -44 14 -18 25 -37 25 -43
0 -6 5 -11 10 -11 6 0 10 -5 10 -11 0 -6 9 -23 20 -39 33 -46 194 -370 224
-450 15 -41 34 -88 41 -105 16 -36 64 -176 77 -225 14 -51 28 -109 38 -155 5
-22 16 -69 25 -105 31 -126 50 -275 65 -505 5 -88 12 -173 14 -190 6 -45 -12
-487 -24 -585 -25 -201 -58 -374 -100 -525 -6 -22 -15 -56 -19 -75 -14 -58
-90 -267 -127 -346 -19 -41 -34 -77 -34 -80 0 -11 -94 -199 -125 -249 -16 -27
-37 -63 -45 -80 -8 -16 -28 -50 -45 -75 -17 -25 -37 -58 -45 -75 -8 -16 -21
-36 -28 -43 -6 -8 -17 -23 -23 -34 -6 -11 -17 -27 -24 -36 -8 -9 -40 -53 -73
-97 -124 -165 -305 -362 -467 -507 -55 -49 -105 -93 -111 -98 -186 -143 -302
-226 -346 -249 -15 -8 -36 -21 -46 -30 -10 -9 -27 -21 -38 -27 -10 -6 -35 -19
-54 -30 -19 -10 -37 -21 -40 -24 -3 -3 -18 -11 -35 -19 -16 -7 -37 -17 -45
-22 -143 -78 -355 -170 -485 -210 -22 -6 -49 -15 -60 -19 -11 -4 -38 -12 -60
-18 -22 -6 -60 -16 -85 -23 -289 -78 -685 -112 -1135 -97 -390 14 -571 40
-887 127 -73 20 -163 52 -172 61 -6 6 -18 10 -28 10 -9 0 -33 9 -53 20 -20 11
-41 20 -48 20 -7 0 -82 35 -167 78 -140 71 -185 96 -315 173 -22 12 -98 64
-168 114 -222 157 -225 158 -320 157 -63 0 -98 -7 -152 -27 -71 -26 -146 -49
-220 -66 -126 -29 -695 -53 -695 -29 0 5 21 32 48 59 75 80 124 140 183 226
55 80 129 223 129 248 0 8 3 17 7 21 13 12 31 135 32 206 1 74 -19 200 -44
279 -9 29 -52 126 -94 215 -85 175 -97 201 -131 291 -12 33 -26 69 -31 80 -8
20 -44 133 -60 193 -24 88 -31 116 -55 232 -49 232 -60 337 -75 665 -15 329 2
707 40 940 6 33 15 90 20 127 6 36 15 77 20 90 5 13 14 48 21 78 13 60 16 70
61 210 32 97 37 110 84 215 94 207 91 201 127 265 69 121 100 174 117 198 10
15 21 36 25 47 3 11 17 33 31 49 14 16 25 33 25 37 0 4 6 14 13 21 7 7 30 38
52 68 22 30 45 61 52 68 7 7 13 16 13 20 0 4 13 21 28 37 15 17 66 75 114 130
131 152 331 343 492 469 28 22 55 46 59 53 4 7 25 22 45 33 58 31 76 44 85 58
4 6 14 12 21 12 8 0 19 7 26 15 7 9 29 23 49 32 20 9 63 35 96 58 33 22 86 53
118 69 37 19 57 35 57 47 0 10 5 21 10 24 6 3 10 -1 10 -9 0 -9 7 -16 15 -16
8 0 15 5 15 10 0 6 -5 10 -12 10 -9 0 -8 3 1 13 10 9 15 9 18 0 5 -14 29 -7
120 39 34 17 60 35 57 40 -6 9 8 11 43 8 17 -1 21 3 17 14 -5 12 1 14 34 10
23 -2 43 0 47 6 3 5 19 10 36 10 30 0 38 17 17 38 -9 9 -8 15 8 27 19 15 19
16 -1 14 -60 -4 -65 -1 -65 41 0 33 3 40 20 40 11 0 20 7 20 15 0 8 6 15 13
16 10 0 10 2 0 6 -23 9 -14 33 11 33 35 0 56 -10 56 -26 0 -20 11 -17 45 11
29 24 29 24 7 25 -29 0 -56 26 -48 46 5 12 18 14 78 8 40 -4 76 -11 79 -17 4
-6 20 0 40 14 l34 24 -80 5 -80 5 55 8 c30 5 81 8 112 7 62 -1 138 15 138 30
0 6 5 10 10 10 6 0 10 -7 10 -15 0 -11 11 -15 40 -15 23 0 40 5 40 11 0 8 5 8
15 -1 21 -18 42 2 47 45 l4 35 -53 0 c-46 0 -53 3 -53 20 0 23 44 55 65 46 8
-3 15 -15 15 -26 0 -11 3 -20 6 -20 9 0 30 24 36 40 3 11 6 11 11 -3 3 -9 2
-17 -3 -17 -6 0 -10 -18 -10 -40 0 -45 14 -54 24 -15 5 18 13 25 31 25 16 0
25 6 25 15 0 24 32 17 57 -12 l22 -28 1 33 0 33 46 -7 c37 -5 47 -3 59 12 13
18 14 18 34 -3 12 -12 21 -27 21 -32 0 -17 29 -1 35 19 3 11 26 30 51 44 24
14 42 21 39 15 -7 -10 7 -12 76 -9 36 1 52 -4 76 -24 17 -14 37 -26 44 -26 8
1 30 18 49 39 35 38 50 43 50 15z m620 -224 c0 -5 -4 -10 -9 -10 -6 0 -13 5
-16 10 -3 6 1 10 9 10 9 0 16 -4 16 -10z m157 -66 c-3 -3 -12 -4 -19 -1 -8 3
-5 6 6 6 11 1 17 -2 13 -5z m158 -94 c-3 -5 -17 -10 -31 -10 -14 0 -22 -4 -19
-10 3 -5 -1 -10 -9 -10 -9 0 -16 9 -16 20 0 17 7 20 41 20 24 0 38 -4 34 -10z
m45 0 c0 -5 -7 -10 -15 -10 -8 0 -15 5 -15 10 0 6 7 10 15 10 8 0 15 -4 15
-10z m-200 -20 c0 -5 -7 -10 -16 -10 -8 0 -12 5 -9 10 3 6 10 10 16 10 5 0 9
-4 9 -10z m235 -80 c4 -6 -7 -10 -25 -10 -18 0 -29 4 -25 10 3 6 15 10 25 10
10 0 22 -4 25 -10z m-3198 -436 c-3 -3 -12 -4 -19 -1 -8 3 -5 6 6 6 11 1 17
-2 13 -5z"/>
<path d="M4888 9093 c6 -2 18 -2 25 0 6 3 1 5 -13 5 -14 0 -19 -2 -12 -5z"/>
<path d="M4658 8921 c8 -4 13 -12 13 -17 -1 -5 4 -9 9 -8 6 1 19 2 31 3 18 1
19 3 5 16 -8 8 -27 15 -43 15 -19 0 -24 -3 -15 -9z"/>
<path d="M4328 8893 c-10 -2 -18 -9 -18 -14 0 -13 43 -5 48 9 4 12 0 13 -30 5z"/>
<path d="M4598 8883 c6 -2 18 -2 25 0 6 3 1 5 -13 5 -14 0 -19 -2 -12 -5z"/>
<path d="M4408 8836 c-29 -10 -38 -26 -15 -26 14 1 53 28 46 33 -2 2 -16 -1
-31 -7z"/>
<path d="M3165 6717 c-56 -27 -117 -89 -140 -143 -18 -44 -19 -129 -2 -187 18
-61 108 -148 170 -164 72 -20 122 -16 178 13 113 57 177 180 149 286 -35 137
-115 207 -245 214 -47 3 -71 -1 -110 -19z"/>
<path d="M7290 6093 c-30 -2 -59 -8 -64 -14 -6 -5 -18 -9 -28 -9 -22 0 -100
-26 -157 -53 -74 -35 -173 -106 -244 -175 -66 -64 -147 -170 -147 -192 0 -5
-4 -10 -10 -10 -5 0 -10 -5 -10 -11 0 -5 -13 -38 -30 -72 -43 -89 -57 -155
-69 -311 -8 -97 -7 -151 0 -184 22 -93 31 -127 40 -144 5 -10 9 -25 9 -33 0
-9 16 -47 35 -85 103 -204 228 -328 425 -422 98 -47 119 -54 219 -74 91 -18
288 -15 346 5 17 5 50 15 75 22 116 32 262 122 361 222 245 246 327 578 228
917 -20 70 -92 216 -126 258 -84 102 -115 135 -170 178 -92 73 -195 123 -355
173 -40 13 -239 21 -328 14z m182 -439 c84 -21 137 -53 191 -115 50 -57 55
-66 98 -179 9 -23 14 -79 14 -160 0 -128 -10 -180 -48 -250 -23 -42 -89 -130
-97 -130 -4 0 -16 -9 -28 -20 -41 -39 -109 -60 -188 -60 -41 0 -82 4 -92 9 -9
5 -34 17 -54 27 -83 41 -157 139 -197 263 -25 77 -28 218 -6 300 44 166 154
283 300 319 22 5 41 10 42 11 1 0 30 -6 65 -15z"/>
<path d="M3205 6003 c-65 -4 -145 -46 -176 -91 l-24 -36 -3 -721 -3 -722 33
-43 c19 -25 55 -55 83 -69 44 -22 63 -25 157 -26 73 0 111 4 119 13 7 6 21 12
30 12 28 0 87 63 105 110 14 40 15 117 10 732 -5 654 -6 690 -24 732 -14 31
-32 51 -63 69 -41 24 -142 49 -178 45 -9 -1 -38 -3 -66 -5z"/>
<path d="M4015 6000 c-69 -8 -88 -14 -133 -48 -62 -47 -59 -13 -67 -787 l-8
-710 22 -42 c40 -80 112 -115 239 -117 108 -1 175 18 220 63 66 66 65 53 57
584 -6 435 -5 483 11 532 22 72 91 145 154 164 25 7 53 17 62 22 43 22 130 0
178 -46 65 -63 64 -44 56 -620 l-8 -520 25 -56 c37 -85 90 -114 227 -125 122
-10 225 32 268 109 16 29 17 75 17 547 0 530 -1 515 37 580 32 56 49 72 95 95
28 14 59 25 67 25 8 0 27 5 41 12 19 9 38 8 80 -2 30 -7 55 -17 55 -22 0 -4 6
-8 14 -8 7 0 26 -19 42 -42 l29 -43 5 -561 5 -560 25 -37 c15 -22 46 -47 80
-64 49 -24 66 -27 157 -28 69 0 106 4 114 13 7 6 19 12 26 12 27 0 81 45 103
86 l23 41 -6 584 c-7 602 -10 641 -49 702 -10 14 -18 30 -18 34 0 20 -103 111
-156 138 -33 17 -61 32 -64 35 -3 3 -25 12 -50 19 -25 7 -58 18 -75 24 -19 8
-92 12 -200 12 l-170 0 -70 -34 c-38 -18 -89 -42 -113 -54 -23 -11 -60 -35
-82 -54 l-39 -34 -84 56 c-46 30 -89 55 -96 55 -6 0 -11 4 -11 8 0 4 -21 14
-47 21 -27 7 -69 20 -96 28 -58 18 -340 15 -372 -4 -11 -6 -41 -17 -67 -25
-27 -7 -48 -16 -48 -20 0 -4 -6 -8 -14 -8 -7 0 -19 -7 -26 -15 -20 -24 -47
-18 -87 19 -21 18 -51 40 -68 48 -37 19 -130 27 -210 18z"/>
<path d="M73 765 c0 -27 2 -38 4 -22 2 15 2 37 0 50 -2 12 -4 0 -4 -28z"/>
<path d="M10783 765 c0 -27 2 -38 4 -22 2 15 2 37 0 50 -2 12 -4 0 -4 -28z"/>
<path d="M82 700 c0 -8 4 -26 8 -40 6 -20 8 -21 8 -5 0 11 -3 29 -8 40 -5 12
-8 14 -8 5z"/>
<path d="M10771 694 c0 -11 3 -14 6 -6 3 7 2 16 -1 19 -3 4 -6 -2 -5 -13z"/>
<path d="M10761 654 c0 -11 3 -14 6 -6 3 7 2 16 -1 19 -3 4 -6 -2 -5 -13z"/>
<path d="M10746 615 c-3 -9 -6 -22 -5 -28 0 -7 5 -1 10 12 5 13 8 26 5 28 -2
2 -6 -3 -10 -12z"/>
<path d="M106 607 c3 -10 9 -15 12 -12 3 3 0 11 -7 18 -10 9 -11 8 -5 -6z"/>
<path d="M120 561 c0 -6 4 -13 10 -16 6 -3 7 1 4 9 -7 18 -14 21 -14 7z"/>
<path d="M10726 553 c-6 -14 -5 -15 5 -6 7 7 10 15 7 18 -3 3 -9 -2 -12 -12z"/>
<path d="M140 526 c0 -11 30 -66 36 -66 2 0 -3 15 -12 33 -19 36 -24 44 -24
33z"/>
<path d="M10705 509 c-4 -6 -5 -12 -2 -15 2 -3 7 2 10 11 7 17 1 20 -8 4z"/>
<path d="M10680 465 c-7 -9 -11 -17 -9 -20 3 -2 10 5 17 15 14 24 10 26 -8 5z"/>
<path d="M229 372 c11 -16 28 -35 38 -43 9 -8 2 5 -17 29 -38 48 -52 57 -21
14z"/>
<path d="M10610 358 c-19 -24 -26 -37 -17 -29 19 15 61 71 54 71 -2 0 -19 -19
-37 -42z"/>
<path d="M340 255 c19 -19 36 -35 39 -35 3 0 -10 16 -29 35 -19 19 -36 35 -39
35 -3 0 10 -16 29 -35z"/>
<path d="M10495 243 c-54 -50 -34 -40 28 14 20 18 34 33 30 33 -5 -1 -30 -22
-58 -47z"/>
<path d="M415 196 c17 -14 34 -26 39 -26 11 0 11 0 -34 29 l-35 23 30 -26z"/>
<path d="M10416 185 c-11 -8 -15 -15 -9 -15 6 0 16 7 23 15 16 19 11 19 -14 0z"/>
<path d="M500 146 c0 -2 7 -7 16 -10 8 -3 12 -2 9 4 -6 10 -25 14 -25 6z"/>
<path d="M550 120 c8 -5 20 -10 25 -10 6 0 3 5 -5 10 -8 5 -19 10 -25 10 -5 0
-3 -5 5 -10z"/>
<path d="M10290 120 c-8 -5 -10 -10 -5 -10 6 0 17 5 25 10 8 5 11 10 5 10 -5
0 -17 -5 -25 -10z"/>
<path d="M619 95 c18 -8 41 -15 50 -15 9 1 -2 7 -24 15 -52 19 -70 18 -26 0z"/>
<path d="M10210 94 c-19 -7 -28 -13 -19 -13 9 -1 32 6 50 14 42 18 17 17 -31
-1z"/>
<path d="M10148 73 c7 -3 16 -2 19 1 4 3 -2 6 -13 5 -11 0 -14 -3 -6 -6z"/>
<path d="M743 63 c9 -2 23 -2 30 0 6 3 -1 5 -18 5 -16 0 -22 -2 -12 -5z"/>
<path d="M10098 63 c6 -2 18 -2 25 0 6 3 1 5 -13 5 -14 0 -19 -2 -12 -5z"/>
</g>
</svg>
